<svg width="691" height="462" viewBox="0 0 691 462" fill="none" xmlns="http://www.w3.org/2000/svg">
<line x1="488.691" y1="187.488" x2="637.691" y2="58.4879" stroke="black" stroke-width="4"/>
<line x1="21.6909" y1="368.488" x2="170.691" y2="239.488" stroke="black" stroke-width="4"/>
<path d="M31.2429 96.3945C117.622 54.8791 267.239 89.0493 349.39 110.185C349.84 109.922 350.291 109.659 350.743 109.395C687.244 -87.1035 487.743 189.895 595.243 250.395C702.743 310.895 740.743 340.896 595.243 383.896C449.743 426.896 -19.2568 493.398 115.743 371.896C250.743 250.395 -103.757 123.896 31.2429 96.3945Z" fill="#ADD7FF"/>
<ellipse cx="151" cy="40.5" rx="21" ry="19.5" fill="#FBD538"/>
<ellipse cx="151" cy="40.5" rx="21" ry="19.5" fill="#FBD538"/>
<ellipse cx="151" cy="40.5" rx="21" ry="19.5" fill="#FBD538"/>
<ellipse cx="625" cy="410.5" rx="21" ry="19.5" fill="#FBD538"/>
<ellipse cx="625" cy="410.5" rx="21" ry="19.5" fill="#FBD538"/>
<ellipse cx="625" cy="410.5" rx="21" ry="19.5" fill="#FBD538"/>
<ellipse cx="595" cy="451.5" rx="9" ry="10.5" fill="#FBD538"/>
<ellipse cx="595" cy="451.5" rx="9" ry="10.5" fill="#FBD538"/>
<ellipse cx="595" cy="451.5" rx="9" ry="10.5" fill="#FBD538"/>
<ellipse cx="191" cy="10.5" rx="9" ry="10.5" fill="#FBD538"/>
<ellipse cx="191" cy="10.5" rx="9" ry="10.5" fill="#FBD538"/>
<ellipse cx="191" cy="10.5" rx="9" ry="10.5" fill="#FBD538"/>
</svg>
